<svg width="46" height="20" viewBox="0 0 46 20" fill="none" xmlns="http://www.w3.org/2000/svg">
<path d="M45.0781 10.4131L42.0938 7.82011L40.5313 3.89664C40.4821 3.76921 40.3906 3.65732 40.2682 3.57515C40.1458 3.49298 39.9981 3.44422 39.8438 3.43505H29.6875V1.39865C29.6835 1.21971 29.5999 1.04907 29.4543 0.922511C29.3086 0.795957 29.1122 0.723324 28.9062 0.719849H0.78125C0.57405 0.719849 0.375336 0.791364 0.228823 0.918664C0.08231 1.04596 0 1.21862 0 1.39865C0 1.57868 0.08231 1.75134 0.228823 1.87864C0.375336 2.00594 0.57405 2.07745 0.78125 2.07745H28.125V15.6535H18.6719C18.4926 14.8862 18.0135 14.1964 17.3158 13.701C16.6182 13.2055 15.7448 12.9349 14.8438 12.9349C13.9427 12.9349 13.0693 13.2055 12.3717 13.701C11.674 14.1964 11.1949 14.8862 11.0156 15.6535H5.46875C5.26155 15.6535 5.06284 15.725 4.91632 15.8523C4.76981 15.9796 4.6875 16.1522 4.6875 16.3323C4.6875 16.5123 4.76981 16.685 4.91632 16.8123C5.06284 16.9396 5.26155 17.0111 5.46875 17.0111H11.0156C11.1949 17.7783 11.674 18.4681 12.3717 18.9636C13.0693 19.459 13.9427 19.7297 14.8438 19.7297C15.7448 19.7297 16.6182 19.459 17.3158 18.9636C18.0135 18.4681 18.4926 17.7783 18.6719 17.0111H32.8906C33.0699 17.7783 33.549 18.4681 34.2467 18.9636C34.9443 19.459 35.8177 19.7297 36.7188 19.7297C37.6198 19.7297 38.4932 19.459 39.1908 18.9636C39.8885 18.4681 40.3676 17.7783 40.5469 17.0111H44.5312C44.7385 17.0111 44.9372 16.9396 45.0837 16.8123C45.2302 16.685 45.3125 16.5123 45.3125 16.3323V10.9019C45.312 10.7184 45.2277 10.5426 45.0781 10.4131V10.4131ZM14.8438 18.3687C14.3802 18.3687 13.9271 18.2492 13.5416 18.0255C13.1562 17.8017 12.8558 17.4837 12.6784 17.1116C12.501 16.7395 12.4546 16.33 12.545 15.935C12.6355 15.54 12.8587 15.1771 13.1865 14.8923C13.5142 14.6075 13.9319 14.4136 14.3865 14.335C14.8411 14.2564 15.3124 14.2968 15.7407 14.4509C16.1689 14.605 16.535 14.866 16.7925 15.2009C17.05 15.5358 17.1875 15.9295 17.1875 16.3323C17.1875 16.8724 16.9406 17.3903 16.501 17.7722C16.0615 18.1541 15.4654 18.3687 14.8438 18.3687ZM36.7188 18.3687C36.2552 18.3687 35.8021 18.2492 35.4166 18.0255C35.0312 17.8017 34.7308 17.4837 34.5534 17.1116C34.376 16.7395 34.3296 16.33 34.42 15.935C34.5105 15.54 34.7337 15.1771 35.0615 14.8923C35.3892 14.6075 35.8069 14.4136 36.2615 14.335C36.7162 14.2564 37.1874 14.2968 37.6157 14.4509C38.0439 14.605 38.41 14.866 38.6675 15.2009C38.925 15.5358 39.0625 15.9295 39.0625 16.3323C39.0625 16.8724 38.8156 17.3903 38.376 17.7722C37.9365 18.1541 37.3404 18.3687 36.7188 18.3687V18.3687ZM43.75 15.6535H40.5469C40.3676 14.8862 39.8885 14.1964 39.1908 13.701C38.4932 13.2055 37.6198 12.9349 36.7188 12.9349C35.8177 12.9349 34.9443 13.2055 34.2467 13.701C33.549 14.1964 33.0699 14.8862 32.8906 15.6535H29.6875V4.79266H39.2812L40.6719 8.40388C40.7039 8.50398 40.7691 8.59369 40.8594 8.66182L43.75 11.187V15.6535Z" fill="#2D2D2D"/>
<path d="M15.625 10.9019C15.625 10.7219 15.5427 10.5492 15.3962 10.4219C15.2497 10.2946 15.051 10.2231 14.8438 10.2231H3.90625C3.69905 10.2231 3.50034 10.2946 3.35382 10.4219C3.20731 10.5492 3.125 10.7219 3.125 10.9019C3.125 11.0819 3.20731 11.2546 3.35382 11.3819C3.50034 11.5092 3.69905 11.5807 3.90625 11.5807H14.8438C15.051 11.5807 15.2497 11.5092 15.3962 11.3819C15.5427 11.2546 15.625 11.0819 15.625 10.9019Z" fill="#2D2D2D"/>
<path d="M16.4062 7.50787C16.6135 7.50787 16.8122 7.43636 16.9587 7.30906C17.1052 7.18176 17.1875 7.0091 17.1875 6.82907C17.1875 6.64904 17.1052 6.47638 16.9587 6.34908C16.8122 6.22178 16.6135 6.15027 16.4062 6.15027H8.59375C8.38655 6.15027 8.18784 6.22178 8.04132 6.34908C7.89481 6.47638 7.8125 6.64904 7.8125 6.82907C7.8125 7.0091 7.89481 7.18176 8.04132 7.30906C8.18784 7.43636 8.38655 7.50787 8.59375 7.50787H16.4062Z" fill="#2D2D2D"/>
<path d="M4.6875 6.82907C4.6875 6.64904 4.60519 6.47638 4.45868 6.34908C4.31216 6.22178 4.11345 6.15027 3.90625 6.15027H2.34375C2.13655 6.15027 1.93784 6.22178 1.79132 6.34908C1.64481 6.47638 1.5625 6.64904 1.5625 6.82907C1.5625 7.0091 1.64481 7.18176 1.79132 7.30906C1.93784 7.43636 2.13655 7.50787 2.34375 7.50787H3.90625C4.11345 7.50787 4.31216 7.43636 4.45868 7.30906C4.60519 7.18176 4.6875 7.0091 4.6875 6.82907Z" fill="#2D2D2D"/>
</svg>
